<svg xmlns="http://www.w3.org/2000/svg" viewBox="0 0 620 188" role="img" aria-labelledby="title desc">
  <title id="title">milXdy logo with blue bevel border</title>
  <desc id="desc">milXdy pink wordmark over a cloud-derived blue halftone background with a beveled blue frame.</desc>
  <defs>
    <style>
      .word {
        fill: #ff19d8;
        font-family: "Arial Rounded MT Bold", "Nunito", "Avenir Next Rounded", Arial, sans-serif;
        font-size: 92px;
        font-weight: 800;
        letter-spacing: -0.5px;
        paint-order: stroke fill;
        stroke: #ffffff;
        stroke-linejoin: round;
        stroke-width: 8px;
      }

      .x-main {
        fill: #ff19d8;
        paint-order: stroke fill;
        stroke: #ffffff;
        stroke-linejoin: round;
        stroke-width: 34px;
      }
    </style>
  </defs>

  <rect x="24" y="20" width="572" height="140" fill="#ffffff"/>
  <image href="milxdy-logo-cloud-halftone-bg.png" x="24" y="20" width="572" height="140" preserveAspectRatio="none"/>

  <path d="M16 12h592l-12 14H30z" fill="#bed3e5"/>
  <path d="M608 12v156l-12-8V26z" fill="#809ab3"/>
  <path d="M16 12v156l14-8V26z" fill="#9eb8cf"/>
  <path d="M16 168h592l-12-8H30z" fill="#6f8da8"/>
  <rect x="24" y="20" width="572" height="140" fill="none" stroke="#9eb8cf" stroke-width="10"/>
  <rect x="31" y="27" width="558" height="126" fill="none" stroke="#d4e5f2" stroke-width="4"/>

  <g transform="translate(142 121)">
    <text class="word" x="0" y="0">mil</text>
    <g transform="translate(147 -65) scale(0.222)">
      <path class="x-main" d="M178.57 127.15 290.27 0h-26.46l-97.03 110.38L89.34 0H0l117.13 166.93L0 300.25h26.46l102.4-116.59 81.8 116.59h89.34M36.01 19.54H76.66l187.13 262.13h-40.66"/>
      <path fill="#ffffff" d="M38 21h28l184 258h-28z"/>
    </g>
    <text class="word" x="210" y="0">dy</text>
  </g>
</svg>
